HIERARCHY
ROOT pelvis
{
  OFFSET 0 100 0
  CHANNELS 6 Xposition Yposition Zposition Zrotation Xrotation Yrotation
  JOINT pelvis_right_femur
  {
    OFFSET -10.78128 -3.44521 -0.5502486
    CHANNELS 3 Zrotation Xrotation Yrotation
    JOINT right_femur_tibia
    {
      OFFSET -0.8047443 -44.0398 -0.1307829
      CHANNELS 3 Zrotation Xrotation Yrotation
      JOINT right_tibia_foot
      {
        OFFSET 3.006224 -47.83518 -5
        CHANNELS 3 Zrotation Xrotation Yrotation
        End Site
        {
          OFFSET 0 -5 15
        }
      }
    }
  }
  JOINT pelvis_left_femur
  {
    OFFSET 10.78128 -3.44521 -0.5502486
    CHANNELS 3 Zrotation Xrotation Yrotation
    JOINT left_femur_tibia
    {
      OFFSET 0.8047443 -44.0398 -0.1307829
      CHANNELS 3 Zrotation Xrotation Yrotation
      JOINT left_tibia_foot
      {
        OFFSET -4.370144 -48.10324 -4.275266
        CHANNELS 3 Zrotation Xrotation Yrotation
        End Site
        {
          OFFSET 0 -5 15
        }
      }
    }
  }
  JOINT pelvis_spine1
  {
    OFFSET 0 6.468898 -3.129235
    CHANNELS 3 Zrotation Xrotation Yrotation
    JOINT spine1
    {
      OFFSET 0 23.15396 4.99043
      CHANNELS 3 Zrotation Xrotation Yrotation
      JOINT spine2
      {
        OFFSET 0 20.79997 -5.064912
        CHANNELS 3 Zrotation Xrotation Yrotation
        JOINT neck
        {
          OFFSET 0 14.38658 9.616178
          CHANNELS 3 Zrotation Xrotation Yrotation
          End Site
          {
            OFFSET 0 20 0
          }
        }
      }
      JOINT right_manubrium
      {
        OFFSET -5.722621 16.35077 3.967754
        CHANNELS 3 Zrotation Xrotation Yrotation
        JOINT right_clavicle
        {
          OFFSET -13.16364 1.694482 -4.693211
          CHANNELS 3 Zrotation Xrotation Yrotation
          JOINT right_humerus
          {
            OFFSET -28.5034 -0.3100689 -2.792744
            CHANNELS 3 Zrotation Xrotation Yrotation
            JOINT right_radius
            {
              OFFSET -25.15693 0.02248979 -1.271978
              CHANNELS 3 Zrotation Xrotation Yrotation
              End Site
              {
                OFFSET -15 0 0
              }
            }
          }
        }
      }
      JOINT left_manubrium
      {
        OFFSET 5.722621 16.35077 3.967754
        CHANNELS 3 Zrotation Xrotation Yrotation
        JOINT left_clavicle
        {
          OFFSET 13.16364 1.694482 -4.693211
          CHANNELS 3 Zrotation Xrotation Yrotation
          JOINT left_humerus
          {
            OFFSET 29.39168 -1.063119 -2.237045
            CHANNELS 3 Zrotation Xrotation Yrotation
            JOINT left_radius
            {
              OFFSET 24.59957 -0.9528479 0.9047498
              CHANNELS 3 Zrotation Xrotation Yrotation
              End Site
              {
                OFFSET 15 -0 -0
              }
            }
          }
        }
      }
    }
  }
}
MOTION
Frames: 23
Frame Time: 0.0416666666667
1949.112 83.21642 -141.4038 -7.607156 17.66799 -163.0519 0.5795925 10.01681 9.232769 -0 47.02205 -0 12.13564 -16.7774 -11.17647 -2.764472 -4.909587 -8.097645 -0 31.48462 -0 -14.87435 -12.51538 18.87518 -0.3433811 -0.5538778 4.270108 1.735925 13.50886 -7.526881 1.751781 23.53152 4.767312 0.8188553 -23.41734 8.390887 -4.569918 -23.4929 12.91787 96.79517 22.8554 -19.99668 -0 0 11.7325 -16.75894 5.989286 4.994115 2.415014 -21.43586 -7.293288 -87.30025 15.48675 19.14976 0 0 -18.62544 13.84135 14.324 -7.592029
1946.294 83.25709 -148.5222 -7.746219 17.60903 -162.593 0.5795925 10.01681 9.232769 -0 47.02205 -0 12.13564 -16.7774 -11.17647 -2.764472 -4.909587 -8.097645 -0 31.48462 -0 -14.87435 -12.51538 18.87518 -0.3433811 -0.5538778 4.270108 1.735925 13.50886 -7.526881 1.751781 23.53152 4.767312 0.8188553 -23.41734 8.390887 -4.569918 -23.4929 12.91787 96.79517 22.8554 -19.99668 -0 0 11.7325 -16.75894 5.989286 4.994115 2.415014 -21.43586 -7.293288 -87.30025 15.48675 19.14976 0 0 -18.62544 13.84135 14.324 -7.592029
1943.422 83.29776 -155.6187 -7.884736 17.54902 -162.1343 0.5795925 10.01681 9.232769 -0 47.02205 -0 12.13564 -16.7774 -11.17647 -2.764472 -4.909587 -8.097645 -0 31.48462 -0 -14.87435 -12.51538 18.87518 -0.3433811 -0.5538778 4.270108 1.735925 13.50886 -7.526881 1.751781 23.53152 4.767312 0.8188553 -23.41734 8.390887 -4.569918 -23.4929 12.91787 96.79517 22.8554 -19.99668 -0 0 11.7325 -16.75894 5.989286 4.994115 2.415014 -21.43586 -7.293288 -87.30025 15.48675 19.14976 0 0 -18.62544 13.84135 14.324 -7.592029
1940.495 83.33843 -162.6928 -8.0227 17.48796 -161.676 0.5795925 10.01681 9.232769 -0 47.02205 -0 12.13564 -16.7774 -11.17647 -2.764472 -4.909587 -8.097645 -0 31.48462 -0 -14.87435 -12.51538 18.87518 -0.3433811 -0.5538778 4.270108 1.735925 13.50886 -7.526881 1.751781 23.53152 4.767312 0.8188553 -23.41734 8.390887 -4.569918 -23.4929 12.91787 96.79517 22.8554 -19.99668 -0 0 11.7325 -16.75894 5.989286 4.994115 2.415014 -21.43586 -7.293288 -87.30025 15.48675 19.14976 0 0 -18.62544 13.84135 14.324 -7.592029
1937.513 83.3791 -169.7442 -8.1601 17.42584 -161.218 0.5795925 10.01681 9.232769 -0 47.02205 -0 12.13564 -16.7774 -11.17647 -2.764472 -4.909587 -8.097645 -0 31.48462 -0 -14.87435 -12.51538 18.87518 -0.3433811 -0.5538778 4.270108 1.735925 13.50886 -7.526881 1.751781 23.53152 4.767312 0.8188553 -23.41734 8.390887 -4.569918 -23.4929 12.91787 96.79517 22.8554 -19.99668 -0 0 11.7325 -16.75894 5.989286 4.994115 2.415014 -21.43586 -7.293288 -87.30025 15.48675 19.14976 0 0 -18.62544 13.84135 14.324 -7.592029
1934.477 83.41978 -176.7724 -8.296929 17.36268 -160.7603 0.5795925 10.01681 9.232769 -0 47.02205 -0 12.13564 -16.7774 -11.17647 -2.764472 -4.909587 -8.097645 -0 31.48462 -0 -14.87435 -12.51538 18.87518 -0.3433811 -0.5538778 4.270108 1.735925 13.50886 -7.526881 1.751781 23.53152 4.767312 0.8188553 -23.41734 8.390887 -4.569918 -23.4929 12.91787 96.79517 22.8554 -19.99668 -0 0 11.7325 -16.75894 5.989286 4.994115 2.415014 -21.43586 -7.293288 -87.30025 15.48675 19.14976 0 0 -18.62544 13.84135 14.324 -7.592029
1931.388 83.46045 -183.7771 -8.433177 17.29847 -160.3029 0.5795925 10.01681 9.232769 -0 47.02205 -0 12.13564 -16.7774 -11.17647 -2.764472 -4.909587 -8.097645 -0 31.48462 -0 -14.87435 -12.51538 18.87518 -0.3433811 -0.5538778 4.270108 1.735925 13.50886 -7.526881 1.751781 23.53152 4.767312 0.8188553 -23.41734 8.390887 -4.569918 -23.4929 12.91787 96.79517 22.8554 -19.99668 -0 0 11.7325 -16.75894 5.989286 4.994115 2.415014 -21.43586 -7.293288 -87.30025 15.48675 19.14976 0 0 -18.62544 13.84135 14.324 -7.592029
1928.244 83.50112 -190.7577 -8.568837 17.23324 -159.8459 0.5795925 10.01681 9.232769 -0 47.02205 -0 12.13564 -16.7774 -11.17647 -2.764472 -4.909587 -8.097645 -0 31.48462 -0 -14.87435 -12.51538 18.87518 -0.3433811 -0.5538778 4.270108 1.735925 13.50886 -7.526881 1.751781 23.53152 4.767312 0.8188553 -23.41734 8.390887 -4.569918 -23.4929 12.91787 96.79517 22.8554 -19.99668 -0 0 11.7325 -16.75894 5.989286 4.994115 2.415014 -21.43586 -7.293288 -87.30025 15.48675 19.14976 0 0 -18.62544 13.84135 14.324 -7.592029
1925.047 83.54179 -197.7139 -8.703899 17.16697 -159.3891 0.5795925 10.01681 9.232769 -0 47.02205 -0 12.13564 -16.7774 -11.17647 -2.764472 -4.909587 -8.097645 -0 31.48462 -0 -14.87435 -12.51538 18.87518 -0.3433811 -0.5538778 4.270108 1.735925 13.50886 -7.526881 1.751781 23.53152 4.767312 0.8188553 -23.41734 8.390887 -4.569918 -23.4929 12.91787 96.79517 22.8554 -19.99668 -0 0 11.7325 -16.75894 5.989286 4.994115 2.415014 -21.43586 -7.293288 -87.30025 15.48675 19.14976 0 0 -18.62544 13.84135 14.324 -7.592029
1921.796 83.58246 -204.6452 -8.838356 17.09967 -158.9327 0.5795925 10.01681 9.232769 -0 47.02205 -0 12.13564 -16.7774 -11.17647 -2.764472 -4.909587 -8.097645 -0 31.48462 -0 -14.87435 -12.51538 18.87518 -0.3433811 -0.5538778 4.270108 1.735925 13.50886 -7.526881 1.751781 23.53152 4.767312 0.8188553 -23.41734 8.390887 -4.569918 -23.4929 12.91787 96.79517 22.8554 -19.99668 -0 0 11.7325 -16.75894 5.989286 4.994115 2.415014 -21.43586 -7.293288 -87.30025 15.48675 19.14976 0 0 -18.62544 13.84135 14.324 -7.592029
1918.492 83.62313 -211.5514 -8.972199 17.03135 -158.4766 0.5795925 10.01681 9.232769 -0 47.02205 -0 12.13564 -16.7774 -11.17647 -2.764472 -4.909587 -8.097645 -0 31.48462 -0 -14.87435 -12.51538 18.87518 -0.3433811 -0.5538778 4.270108 1.735925 13.50886 -7.526881 1.751781 23.53152 4.767312 0.8188553 -23.41734 8.390887 -4.569918 -23.4929 12.91787 96.79517 22.8554 -19.99668 -0 0 11.7325 -16.75894 5.989286 4.994115 2.415014 -21.43586 -7.293288 -87.30025 15.48675 19.14976 0 0 -18.62544 13.84135 14.324 -7.592029
1915.135 83.6638 -218.4318 -9.105421 16.96202 -158.0209 0.5795925 10.01681 9.232769 -0 47.02205 -0 12.13564 -16.7774 -11.17647 -2.764472 -4.909587 -8.097645 -0 31.48462 -0 -14.87435 -12.51538 18.87518 -0.3433811 -0.5538778 4.270108 1.735925 13.50886 -7.526881 1.751781 23.53152 4.767312 0.8188553 -23.41734 8.390887 -4.569918 -23.4929 12.91787 96.79517 22.8554 -19.99668 -0 0 11.7325 -16.75894 5.989286 4.994115 2.415014 -21.43586 -7.293288 -87.30025 15.48675 19.14976 0 0 -18.62544 13.84135 14.324 -7.592029
1911.724 83.70447 -225.2862 -9.238012 16.89168 -157.5655 0.5795925 10.01681 9.232769 -0 47.02205 -0 12.13564 -16.7774 -11.17647 -2.764472 -4.909587 -8.097645 -0 31.48462 -0 -14.87435 -12.51538 18.87518 -0.3433811 -0.5538778 4.270108 1.735925 13.50886 -7.526881 1.751781 23.53152 4.767312 0.8188553 -23.41734 8.390887 -4.569918 -23.4929 12.91787 96.79517 22.8554 -19.99668 -0 0 11.7325 -16.75894 5.989286 4.994115 2.415014 -21.43586 -7.293288 -87.30025 15.48675 19.14976 0 0 -18.62544 13.84135 14.324 -7.592029
1908.262 83.74514 -232.1142 -9.369965 16.82033 -157.1104 0.5795925 10.01681 9.232769 -0 47.02205 -0 12.13564 -16.7774 -11.17647 -2.764472 -4.909587 -8.097645 -0 31.48462 -0 -14.87435 -12.51538 18.87518 -0.3433811 -0.5538778 4.270108 1.735925 13.50886 -7.526881 1.751781 23.53152 4.767312 0.8188553 -23.41734 8.390887 -4.569918 -23.4929 12.91787 96.79517 22.8554 -19.99668 -0 0 11.7325 -16.75894 5.989286 4.994115 2.415014 -21.43586 -7.293288 -87.30025 15.48675 19.14976 0 0 -18.62544 13.84135 14.324 -7.592029
1904.746 83.78582 -238.9152 -9.501273 16.74798 -156.6557 0.5795925 10.01681 9.232769 -0 47.02205 -0 12.13564 -16.7774 -11.17647 -2.764472 -4.909587 -8.097645 -0 31.48462 -0 -14.87435 -12.51538 18.87518 -0.3433811 -0.5538778 4.270108 1.735925 13.50886 -7.526881 1.751781 23.53152 4.767312 0.8188553 -23.41734 8.390887 -4.569918 -23.4929 12.91787 96.79517 22.8554 -19.99668 -0 0 11.7325 -16.75894 5.989286 4.994115 2.415014 -21.43586 -7.293288 -87.30025 15.48675 19.14976 0 0 -18.62544 13.84135 14.324 -7.592029
1901.179 83.82649 -245.689 -9.631927 16.67464 -156.2013 0.5795925 10.01681 9.232769 -0 47.02205 -0 12.13564 -16.7774 -11.17647 -2.764472 -4.909587 -8.097645 -0 31.48462 -0 -14.87435 -12.51538 18.87518 -0.3433811 -0.5538778 4.270108 1.735925 13.50886 -7.526881 1.751781 23.53152 4.767312 0.8188553 -23.41734 8.390887 -4.569918 -23.4929 12.91787 96.79517 22.8554 -19.99668 -0 0 11.7325 -16.75894 5.989286 4.994115 2.415014 -21.43586 -7.293288 -87.30025 15.48675 19.14976 0 0 -18.62544 13.84135 14.324 -7.592029
1897.559 83.86716 -252.4351 -9.761919 16.6003 -155.7473 0.5795925 10.01681 9.232769 -0 47.02205 -0 12.13564 -16.7774 -11.17647 -2.764472 -4.909587 -8.097645 -0 31.48462 -0 -14.87435 -12.51538 18.87518 -0.3433811 -0.5538778 4.270108 1.735925 13.50886 -7.526881 1.751781 23.53152 4.767312 0.8188553 -23.41734 8.390887 -4.569918 -23.4929 12.91787 96.79517 22.8554 -19.99668 -0 0 11.7325 -16.75894 5.989286 4.994115 2.415014 -21.43586 -7.293288 -87.30025 15.48675 19.14976 0 0 -18.62544 13.84135 14.324 -7.592029
1893.888 83.90783 -259.1531 -9.891243 16.52498 -155.2937 0.5795925 10.01681 9.232769 -0 47.02205 -0 12.13564 -16.7774 -11.17647 -2.764472 -4.909587 -8.097645 -0 31.48462 -0 -14.87435 -12.51538 18.87518 -0.3433811 -0.5538778 4.270108 1.735925 13.50886 -7.526881 1.751781 23.53152 4.767312 0.8188553 -23.41734 8.390887 -4.569918 -23.4929 12.91787 96.79517 22.8554 -19.99668 -0 0 11.7325 -16.75894 5.989286 4.994115 2.415014 -21.43586 -7.293288 -87.30025 15.48675 19.14976 0 0 -18.62544 13.84135 14.324 -7.592029
1890.165 83.9485 -265.8427 -10.01989 16.44869 -154.8404 0.5795925 10.01681 9.232769 -0 47.02205 -0 12.13564 -16.7774 -11.17647 -2.764472 -4.909587 -8.097645 -0 31.48462 -0 -14.87435 -12.51538 18.87518 -0.3433811 -0.5538778 4.270108 1.735925 13.50886 -7.526881 1.751781 23.53152 4.767312 0.8188553 -23.41734 8.390887 -4.569918 -23.4929 12.91787 96.79517 22.8554 -19.99668 -0 0 11.7325 -16.75894 5.989286 4.994115 2.415014 -21.43586 -7.293288 -87.30025 15.48675 19.14976 0 0 -18.62544 13.84135 14.324 -7.592029
1886.39 83.98917 -272.5033 -10.14785 16.37142 -154.3874 0.5795925 10.01681 9.232769 -0 47.02205 -0 12.13564 -16.7774 -11.17647 -2.764472 -4.909587 -8.097645 -0 31.48462 -0 -14.87435 -12.51538 18.87518 -0.3433811 -0.5538778 4.270108 1.735925 13.50886 -7.526881 1.751781 23.53152 4.767312 0.8188553 -23.41734 8.390887 -4.569918 -23.4929 12.91787 96.79517 22.8554 -19.99668 -0 0 11.7325 -16.75894 5.989286 4.994115 2.415014 -21.43586 -7.293288 -87.30025 15.48675 19.14976 0 0 -18.62544 13.84135 14.324 -7.592029
1882.564 84.02984 -279.1347 -10.27513 16.29318 -153.9348 0.5795925 10.01681 9.232769 -0 47.02205 -0 12.13564 -16.7774 -11.17647 -2.764472 -4.909587 -8.097645 -0 31.48462 -0 -14.87435 -12.51538 18.87518 -0.3433811 -0.5538778 4.270108 1.735925 13.50886 -7.526881 1.751781 23.53152 4.767312 0.8188553 -23.41734 8.390887 -4.569918 -23.4929 12.91787 96.79517 22.8554 -19.99668 -0 0 11.7325 -16.75894 5.989286 4.994115 2.415014 -21.43586 -7.293288 -87.30025 15.48675 19.14976 0 0 -18.62544 13.84135 14.324 -7.592029
1878.688 84.07051 -285.7365 -10.4017 16.21398 -153.4826 0.5795925 10.01681 9.232769 -0 47.02205 -0 12.13564 -16.7774 -11.17647 -2.764472 -4.909587 -8.097645 -0 31.48462 -0 -14.87435 -12.51538 18.87518 -0.3433811 -0.5538778 4.270108 1.735925 13.50886 -7.526881 1.751781 23.53152 4.767312 0.8188553 -23.41734 8.390887 -4.569918 -23.4929 12.91787 96.79517 22.8554 -19.99668 -0 0 11.7325 -16.75894 5.989286 4.994115 2.415014 -21.43586 -7.293288 -87.30025 15.48675 19.14976 0 0 -18.62544 13.84135 14.324 -7.592029
1874.76 84.11118 -292.3082 -10.52757 16.13382 -153.0307 0.5795925 10.01681 9.232769 -0 47.02205 -0 12.13564 -16.7774 -11.17647 -2.764472 -4.909587 -8.097645 -0 31.48462 -0 -14.87435 -12.51538 18.87518 -0.3433811 -0.5538778 4.270108 1.735925 13.50886 -7.526881 1.751781 23.53152 4.767312 0.8188553 -23.41734 8.390887 -4.569918 -23.4929 12.91787 96.79517 22.8554 -19.99668 -0 0 11.7325 -16.75894 5.989286 4.994115 2.415014 -21.43586 -7.293288 -87.30025 15.48675 19.14976 0 0 -18.62544 13.84135 14.324 -7.592029
